<svg width="223" height="76" viewBox="0 0 223 76" fill="none" xmlns="http://www.w3.org/2000/svg">
<circle cx="112" cy="25" r="14" stroke="#169799" stroke-width="3"/>
<path d="M118.233 25.2917C116.925 21.8917 112.267 21.7083 113.392 16.7667C113.475 16.4 113.083 16.1167 112.767 16.3083C109.742 18.0917 107.567 21.6667 109.392 26.35C109.542 26.7333 109.092 27.0917 108.767 26.8417C107.258 25.7 107.1 24.0583 107.233 22.8833C107.283 22.45 106.717 22.2417 106.475 22.6C105.908 23.4667 105.333 24.8667 105.333 26.975C105.65 31.6417 109.592 33.075 111.008 33.2584C113.033 33.5167 115.225 33.1417 116.8 31.7C118.533 30.0917 119.167 27.525 118.233 25.2917ZM110.5 29.4833C111.7 29.1917 112.317 28.325 112.483 27.5583C112.758 26.3667 111.683 25.2 112.408 23.3167C112.683 24.875 115.133 25.85 115.133 27.55C115.2 29.6583 112.917 31.4667 110.5 29.4833Z" fill="#169799"/>
<path d="M117.9 25.045C116.592 21.645 111.933 21.4617 113.058 16.52C113.142 16.1534 112.75 15.87 112.433 16.0617C109.408 17.845 107.233 21.42 109.058 26.1034C109.208 26.4867 108.758 26.845 108.433 26.595C106.925 25.4534 106.767 23.8117 106.9 22.6367C106.95 22.2034 106.383 21.995 106.142 22.3534C105.575 23.22 105 24.62 105 26.7284C105.317 31.395 109.258 32.8284 110.675 33.0117C112.7 33.27 114.892 32.895 116.467 31.4534C118.2 29.845 118.833 27.2784 117.9 25.045ZM110.167 29.2367C111.367 28.945 111.983 28.0784 112.15 27.3117C112.425 26.12 111.35 24.9534 112.075 23.07C112.35 24.6284 114.8 25.6034 114.8 27.3034C114.867 29.4117 112.583 31.22 110.167 29.2367Z" fill="#169799"/>
<rect x="63" y="45" width="35" height="3" rx="1.5" fill="#169799"/>
<rect x="126" y="45" width="35" height="3" rx="1.5" fill="#169799"/>
<path d="M33.6316 67V55.64H37.6636C38.8902 55.64 39.9142 55.896 40.7356 56.408C41.5569 56.9093 42.1702 57.592 42.5756 58.456C42.9916 59.3093 43.1996 60.2587 43.1996 61.304C43.1996 62.456 42.9702 63.4587 42.5116 64.312C42.0636 65.1653 41.4236 65.8267 40.5916 66.296C39.7596 66.7653 38.7836 67 37.6636 67H33.6316ZM41.3756 61.304C41.3756 60.504 41.2262 59.8 40.9276 59.192C40.6396 58.5733 40.2182 58.0933 39.6636 57.752C39.1196 57.4 38.4529 57.224 37.6636 57.224H35.4236V65.416H37.6636C38.4636 65.416 39.1356 65.2347 39.6796 64.872C40.2342 64.5093 40.6556 64.0187 40.9436 63.4C41.2316 62.7813 41.3756 62.0827 41.3756 61.304ZM49.8207 67.08C48.914 67.08 48.146 66.9253 47.5167 66.616C46.898 66.3067 46.3967 65.8853 46.0127 65.352C45.6394 64.8187 45.362 64.2107 45.1807 63.528C45.01 62.8453 44.9247 62.136 44.9247 61.4V55.64H46.7167V61.4C46.7167 61.9227 46.77 62.4293 46.8767 62.92C46.9834 63.4 47.154 63.832 47.3887 64.216C47.6234 64.6 47.938 64.904 48.3327 65.128C48.738 65.352 49.234 65.464 49.8207 65.464C50.418 65.464 50.914 65.352 51.3087 65.128C51.714 64.8933 52.0287 64.584 52.2527 64.2C52.4874 63.8053 52.658 63.368 52.7647 62.888C52.8714 62.408 52.9247 61.912 52.9247 61.4V55.64H54.7327V61.4C54.7327 62.1787 54.6367 62.9147 54.4447 63.608C54.2634 64.2907 53.9754 64.8933 53.5807 65.416C53.1967 65.928 52.6954 66.3333 52.0767 66.632C51.458 66.9307 50.706 67.08 49.8207 67.08ZM66.6679 67V58.904L63.3239 65.048H62.2679L58.9079 58.904V67H57.1159V55.64H59.0359L62.7959 62.584L66.5559 55.64H68.4759V67H66.6679ZM71.0378 67V55.64H72.8298V67H71.0378ZM77.1892 58.968V67H75.3972V55.64H76.8692L83.3012 63.848V55.656H85.1092V67H83.5412L77.1892 58.968ZM87.6628 67V55.64H91.6948C92.9215 55.64 93.9455 55.896 94.7668 56.408C95.5881 56.9093 96.2015 57.592 96.6068 58.456C97.0228 59.3093 97.2308 60.2587 97.2308 61.304C97.2308 62.456 97.0015 63.4587 96.5428 64.312C96.0948 65.1653 95.4548 65.8267 94.6228 66.296C93.7908 66.7653 92.8148 67 91.6948 67H87.6628ZM95.4068 61.304C95.4068 60.504 95.2575 59.8 94.9588 59.192C94.6708 58.5733 94.2495 58.0933 93.6948 57.752C93.1508 57.4 92.4841 57.224 91.6948 57.224H89.4548V65.416H91.6948C92.4948 65.416 93.1668 65.2347 93.7108 64.872C94.2655 64.5093 94.6868 64.0187 94.9748 63.4C95.2628 62.7813 95.4068 62.0827 95.4068 61.304ZM103.852 67.08C102.945 67.08 102.177 66.9253 101.548 66.616C100.929 66.3067 100.428 65.8853 100.044 65.352C99.6706 64.8187 99.3933 64.2107 99.2119 63.528C99.0413 62.8453 98.9559 62.136 98.9559 61.4V55.64H100.748V61.4C100.748 61.9227 100.801 62.4293 100.908 62.92C101.015 63.4 101.185 63.832 101.42 64.216C101.655 64.6 101.969 64.904 102.364 65.128C102.769 65.352 103.265 65.464 103.852 65.464C104.449 65.464 104.945 65.352 105.34 65.128C105.745 64.8933 106.06 64.584 106.284 64.2C106.519 63.8053 106.689 63.368 106.796 62.888C106.903 62.408 106.956 61.912 106.956 61.4V55.64H108.764V61.4C108.764 62.1787 108.668 62.9147 108.476 63.608C108.295 64.2907 108.007 64.8933 107.612 65.416C107.228 65.928 106.727 66.3333 106.108 66.632C105.489 66.9307 104.737 67.08 103.852 67.08ZM124.028 64.072C124.028 64.68 123.868 65.2027 123.548 65.64C123.239 66.0773 122.818 66.4133 122.284 66.648C121.751 66.8827 121.164 67 120.524 67H115.1V55.64H120.956C121.49 55.64 121.948 55.784 122.332 56.072C122.727 56.3493 123.026 56.712 123.228 57.16C123.442 57.5973 123.548 58.056 123.548 58.536C123.548 59.0907 123.404 59.6133 123.116 60.104C122.839 60.584 122.439 60.9413 121.916 61.176C122.567 61.368 123.079 61.72 123.452 62.232C123.836 62.7333 124.028 63.3467 124.028 64.072ZM122.188 63.736C122.188 63.416 122.119 63.128 121.98 62.872C121.852 62.6053 121.671 62.392 121.436 62.232C121.212 62.0613 120.946 61.976 120.636 61.976H116.892V65.448H120.524C120.844 65.448 121.127 65.3733 121.372 65.224C121.628 65.064 121.826 64.856 121.964 64.6C122.114 64.3333 122.188 64.0453 122.188 63.736ZM116.892 57.192V60.536H120.188C120.487 60.536 120.754 60.4667 120.988 60.328C121.223 60.1787 121.41 59.9813 121.548 59.736C121.687 59.48 121.756 59.192 121.756 58.872C121.756 58.5413 121.692 58.2533 121.564 58.008C121.436 57.752 121.26 57.5547 121.036 57.416C120.823 57.2667 120.572 57.192 120.284 57.192H116.892ZM128.943 55.64H130.639L135.055 67H133.167L131.967 63.912H127.583L126.399 67H124.495L128.943 55.64ZM131.615 62.584L129.791 57.608L127.903 62.584H131.615ZM138.252 58.968V67H136.46V55.64H137.932L144.364 63.848V55.656H146.172V67H144.604L138.252 58.968ZM148.725 67V55.64H152.757C153.984 55.64 155.008 55.896 155.829 56.408C156.651 56.9093 157.264 57.592 157.669 58.456C158.085 59.3093 158.293 60.2587 158.293 61.304C158.293 62.456 158.064 63.4587 157.605 64.312C157.157 65.1653 156.517 65.8267 155.685 66.296C154.853 66.7653 153.877 67 152.757 67H148.725ZM156.469 61.304C156.469 60.504 156.32 59.8 156.021 59.192C155.733 58.5733 155.312 58.0933 154.757 57.752C154.213 57.4 153.547 57.224 152.757 57.224H150.517V65.416H152.757C153.557 65.416 154.229 65.2347 154.773 64.872C155.328 64.5093 155.749 64.0187 156.037 63.4C156.325 62.7813 156.469 62.0827 156.469 61.304ZM163.037 55.64H164.733L169.149 67H167.261L166.061 63.912H161.677L160.493 67H158.589L163.037 55.64ZM165.709 62.584L163.885 57.608L161.997 62.584H165.709ZM170.553 67V55.64H175.497C176.009 55.64 176.479 55.7467 176.905 55.96C177.332 56.1733 177.7 56.456 178.009 56.808C178.329 57.16 178.575 57.5547 178.745 57.992C178.927 58.4293 179.017 58.8773 179.017 59.336C179.017 59.8373 178.927 60.3173 178.745 60.776C178.564 61.2347 178.303 61.6293 177.961 61.96C177.631 62.2907 177.241 62.5307 176.793 62.68L179.465 67H177.449L174.985 63.048H172.345V67H170.553ZM172.345 61.464H175.481C175.812 61.464 176.105 61.368 176.361 61.176C176.617 60.984 176.82 60.728 176.969 60.408C177.119 60.0773 177.193 59.72 177.193 59.336C177.193 58.9413 177.108 58.5893 176.937 58.28C176.767 57.96 176.543 57.704 176.265 57.512C175.999 57.32 175.705 57.224 175.385 57.224H172.345V61.464ZM184.412 55.64H186.108L190.524 67H188.636L187.436 63.912H183.052L181.868 67H179.964L184.412 55.64ZM187.084 62.584L185.26 57.608L183.372 62.584H187.084Z" fill="#169799"/>
<circle cx="111.5" cy="47.5" r="1.5" fill="#169799"/>
</svg>
